<?xml version="1.0" standalone="no"?>
<!DOCTYPE svg PUBLIC "-//W3C//DTD SVG 20010904//EN"
 "http://www.w3.org/TR/2001/REC-SVG-20010904/DTD/svg10.dtd">
<svg version="1.0" xmlns="http://www.w3.org/2000/svg"
 width="1200.000000pt" height="1200.000000pt" viewBox="0 0 1200.000000 1200.000000"
 preserveAspectRatio="xMidYMid meet">
<metadata>
Created by potrace 1.11, written by Peter Selinger 2001-2013
</metadata>
<g transform="translate(0.000000,1200.000000) scale(0.100000,-0.100000)"
fill="#000000" stroke="none">
<path d="M9424 11794 l-51 -54 1 -84 c1 -47 -2 -83 -6 -80 -4 3 -8 -2 -8 -10
0 -24 -2 -30 -17 -44 -7 -8 -11 -18 -8 -23 4 -5 -1 -9 -10 -9 -9 0 -13 -4 -10
-10 3 -5 1 -10 -6 -10 -7 0 -10 -2 -7 -6 5 -4 -1683 -1697 -1736 -1741 -8 -7
-20 -13 -25 -13 -5 0 -13 -5 -17 -12 -5 -7 -3 -8 6 -3 9 5 11 4 6 -4 -4 -6
-11 -9 -16 -6 -5 3 -11 1 -15 -5 -4 -6 -11 -8 -16 -5 -5 4 -9 1 -9 -6 0 -9 -3
-9 -14 0 -11 9 -16 9 -22 0 -5 -8 -28 -10 -76 -6 l-68 6 -54 -54 -55 -54 29
-29 c16 -17 26 -33 23 -36 -4 -3 1 -6 10 -6 10 0 17 -7 17 -15 0 -8 5 -15 10
-15 6 0 10 -8 10 -17 0 -15 2 -16 10 -3 8 13 10 12 10 -2 0 -10 5 -18 10 -18
6 0 10 -4 10 -9 0 -4 25 -35 55 -67 30 -33 55 -62 55 -66 0 -5 7 -8 16 -8 14
0 15 -2 3 -17 -8 -10 -9 -14 -2 -10 6 4 18 -1 26 -13 7 -11 17 -17 22 -12 4 4
5 -2 1 -13 -4 -11 -4 -17 -1 -13 6 6 45 -26 45 -37 0 -9 40 -45 51 -45 5 0 8
-4 5 -8 -7 -12 24 -53 35 -47 5 4 9 0 9 -8 0 -8 23 -37 50 -66 28 -29 50 -57
50 -62 0 -6 5 -7 10 -4 6 3 10 -1 10 -9 0 -9 5 -16 10 -16 6 0 10 -7 10 -16 0
-8 3 -13 8 -11 4 3 13 -1 20 -9 7 -8 10 -14 6 -14 -4 0 10 -15 30 -33 20 -18
36 -37 36 -42 0 -13 55 -56 58 -45 2 6 8 8 13 4 5 -3 9 2 9 11 0 9 4 14 9 11
5 -3 12 1 15 10 3 8 11 12 17 8 8 -4 9 -3 5 4 -4 7 -2 12 3 12 6 0 10 6 9 13
-2 6 3 11 10 9 6 -1 12 5 12 14 0 8 4 13 9 10 5 -3 12 1 15 10 3 8 10 13 14
10 10 -6 13 19 6 52 -3 14 -9 20 -16 16 -6 -4 -8 -3 -4 4 3 6 -1 17 -9 25 -8
9 -15 20 -15 26 0 6 -4 11 -10 11 -5 0 -7 6 -4 14 3 7 -2 16 -10 19 -9 4 -16
16 -16 27 0 11 -4 20 -8 20 -4 0 -13 12 -19 28 -7 15 -17 34 -22 42 -17 28
-65 135 -68 153 -2 10 -10 28 -18 41 -13 19 -13 25 -3 29 9 4 10 6 1 6 -7 1
-10 8 -7 16 4 8 2 15 -3 15 -13 0 -6 161 7 178 2 1 3 5 4 10 1 4 6 14 11 22 5
8 10 21 11 29 2 7 12 23 23 35 12 12 21 27 21 33 0 5 18 29 40 52 22 23 40 44
40 46 0 3 0 9 0 15 0 5 7 6 17 3 11 -4 14 -3 9 5 -4 7 36 54 97 117 57 58 102
107 100 109 -3 2 5 7 16 11 12 3 19 9 17 13 -2 4 2 13 10 20 8 7 14 10 14 7 0
-3 16 13 36 35 20 22 42 40 49 40 6 0 22 -14 35 -30 13 -18 30 -28 37 -25 8 2
11 0 8 -5 -7 -11 38 -60 56 -60 7 0 9 -3 6 -7 -4 -3 2 -13 13 -20 11 -8 17
-20 14 -26 -4 -7 -4 -9 0 -6 4 4 28 -13 53 -37 25 -24 50 -44 55 -44 5 0 7 -4
4 -8 -7 -12 33 -44 46 -36 7 4 8 3 4 -4 -9 -15 90 -116 105 -106 8 4 9 3 5 -4
-8 -13 24 -53 36 -46 4 3 8 1 8 -5 0 -19 100 -112 112 -105 7 4 8 3 4 -4 -8
-13 24 -53 36 -46 4 3 8 2 8 -3 0 -19 58 -75 70 -68 8 5 11 4 6 -3 -7 -12 97
-122 115 -122 6 0 8 -4 5 -8 -7 -12 33 -44 46 -36 7 4 8 3 4 -5 -10 -15 91
-114 106 -105 7 4 8 3 4 -4 -8 -13 24 -53 36 -46 4 3 8 1 8 -4 0 -5 20 -30 44
-55 24 -25 41 -49 37 -53 -3 -4 -1 -4 6 0 6 3 18 -3 26 -14 7 -11 17 -17 20
-13 4 3 7 1 7 -6 0 -19 49 -63 62 -55 7 5 8 3 3 -6 -7 -12 49 -70 68 -70 5 0
6 -4 3 -8 -7 -12 33 -44 46 -36 7 4 8 3 4 -4 -4 -7 11 -30 38 -56 24 -24 41
-48 38 -52 -4 -4 -2 -4 5 0 6 3 18 -3 26 -14 7 -11 17 -17 20 -13 4 3 7 1 7
-6 0 -20 37 -54 51 -46 7 5 10 4 5 -3 -8 -13 24 -53 36 -46 4 3 8 2 8 -3 0
-19 58 -75 70 -68 8 5 11 4 6 -3 -7 -12 97 -122 115 -122 6 0 8 -4 5 -8 -7
-12 33 -44 46 -36 7 4 8 3 4 -5 -10 -15 91 -114 106 -105 7 4 8 3 4 -4 -8 -13
24 -53 36 -46 4 3 8 1 8 -5 0 -5 27 -37 60 -70 33 -34 60 -65 60 -71 0 -5 7
-10 16 -10 10 0 14 -6 10 -15 -3 -10 1 -15 11 -15 9 0 14 -3 10 -6 -5 -5 9
-26 39 -58 9 -10 15 -25 31 -86 14 -53 -7 -166 -34 -183 -7 -5 -11 -12 -8 -18
4 -5 3 -9 -2 -9 -4 0 -14 -14 -21 -30 -8 -17 -18 -28 -23 -24 -5 3 -9 -2 -9
-10 0 -16 -31 -56 -80 -105 -14 -13 -18 -21 -10 -17 8 4 5 -1 -7 -12 -12 -11
-19 -23 -15 -27 4 -5 -1 -5 -10 -2 -12 4 -15 2 -11 -9 3 -7 0 -14 -6 -14 -9 0
-9 -5 -1 -20 6 -11 18 -20 27 -20 9 0 14 -3 10 -6 -7 -8 17 -34 32 -34 10 0
15 -15 9 -23 -6 -8 25 -37 32 -32 5 3 16 -2 24 -11 15 -14 71 40 650 618 565
566 677 683 649 677 -15 -4 -43 13 -37 22 3 5 1 9 -4 9 -14 0 -84 69 -78 78 2
4 -8 9 -24 10 -20 2 -37 -7 -59 -29 -17 -17 -31 -28 -31 -25 0 3 -17 -10 -37
-29 -20 -19 -40 -32 -45 -29 -4 3 -5 -3 -1 -12 4 -12 3 -15 -5 -10 -6 4 -19
-2 -29 -14 -10 -11 -23 -20 -29 -20 -7 0 -14 -4 -16 -9 -1 -4 -35 -23 -74 -42
-49 -24 -84 -34 -110 -33 -22 1 -47 3 -57 3 -12 1 -16 5 -11 14 5 8 2 8 -9 -2
-11 -9 -17 -10 -17 -2 0 6 -9 11 -20 11 -11 0 -20 5 -20 10 0 6 -7 10 -15 10
-8 0 -15 5 -15 10 0 6 -6 10 -13 10 -7 0 -19 9 -27 19 -7 11 -17 18 -22 15 -4
-3 -8 3 -8 13 0 12 -3 14 -8 6 -6 -9 -13 -3 -26 17 -9 17 -22 28 -27 25 -5 -4
-9 1 -9 9 0 9 -6 15 -12 13 -7 -1 -12 4 -11 11 2 6 -1 12 -7 12 -17 0 -49 33
-43 44 3 6 3 8 -1 4 -9 -8 -185 164 -179 175 3 4 1 6 -4 5 -12 -4 -329 315
-325 327 2 5 1 7 -3 3 -9 -8 -154 134 -148 145 3 4 1 6 -4 5 -12 -4 -249 234
-245 247 2 5 1 7 -3 3 -8 -8 -161 142 -157 155 1 5 -1 7 -5 4 -11 -6 -153 139
-145 148 4 4 2 5 -3 3 -14 -4 -171 153 -167 167 2 5 1 7 -3 3 -9 -8 -154 134
-148 145 3 4 1 6 -4 5 -11 -4 -329 314 -325 325 1 5 -1 7 -5 4 -5 -2 -36 24
-70 58 l-61 62 19 29 c10 16 19 26 19 23 0 -3 28 22 63 55 34 34 62 63 61 66
0 3 7 13 18 23 10 9 18 15 18 13 0 -2 43 39 95 90 52 52 95 91 95 88 0 -4 8 3
19 14 10 12 21 22 25 22 4 0 16 9 28 20 12 10 26 16 32 13 6 -3 8 -3 4 2 -4 4
-1 14 7 21 17 17 28 18 20 2 -4 -7 -1 -6 7 3 16 19 55 36 98 43 9 1 20 4 25 8
14 8 108 4 123 -5 6 -5 12 -4 12 1 0 6 9 8 20 5 11 -3 20 -10 20 -17 0 -6 5
-4 10 4 5 8 10 10 10 4 0 -6 6 -11 13 -12 28 -2 45 -9 72 -26 15 -10 24 -13
20 -6 -6 9 -3 9 13 1 12 -6 24 -16 27 -21 4 -6 10 -8 15 -5 5 3 13 -3 19 -12
6 -11 11 -13 11 -5 0 13 3 12 43 -24 7 -6 17 -11 22 -12 32 -6 45 -15 39 -25
-4 -7 -4 -9 1 -5 4 4 20 -1 35 -12 16 -11 32 -20 38 -20 5 0 15 -7 22 -15 7
-9 19 -14 27 -11 8 3 12 2 9 -3 -3 -5 1 -12 10 -15 24 -9 44 -7 44 4 0 9 34
51 78 96 7 8 11 14 8 14 -3 0 3 9 14 20 17 17 18 23 8 40 -7 10 -14 17 -16 15
-2 -2 -16 8 -31 23 -59 59 -145 132 -155 132 -6 0 -4 5 4 10 13 8 12 10 -3 10
-11 0 -32 14 -47 30 -15 17 -33 30 -40 30 -6 0 -8 5 -5 10 3 6 2 10 -4 10 -6
0 -26 16 -46 35 -19 20 -40 33 -45 30 -6 -4 -10 -3 -9 2 3 19 -2 33 -12 33 -6
0 -23 13 -39 30 -15 16 -30 26 -34 23 -3 -3 -6 1 -6 10 0 10 -5 17 -10 17 -6
0 -27 16 -47 35 -20 19 -40 32 -45 29 -4 -3 -8 -2 -7 3 4 21 -2 33 -16 33 -8
0 -15 5 -15 10 0 6 -7 10 -15 10 -9 0 -12 6 -8 17 4 11 3 14 -6 9 -7 -5 -35
17 -75 58 -35 36 -66 62 -70 59 -3 -4 -6 -1 -6 5 0 21 -14 12 -66 -44z"/>
<path d="M6840 8915 c-7 -8 -16 -12 -21 -10 -4 3 -17 -5 -28 -17 -12 -12 -21
-19 -21 -15 0 10 -93 -42 -102 -56 -4 -6 -10 -8 -14 -5 -3 4 -13 0 -21 -8 -8
-8 -19 -12 -24 -8 -5 3 -8 0 -7 -8 2 -8 -4 -12 -16 -10 -11 2 -15 -1 -11 -7 3
-6 -1 -11 -9 -11 -9 0 -16 -5 -16 -11 0 -5 -4 -7 -10 -4 -5 3 -10 2 -10 -3 0
-9 -50 -37 -62 -34 -4 1 -4 -6 -1 -15 4 -10 2 -14 -5 -9 -6 3 -13 2 -17 -4 -4
-6 -11 -8 -16 -5 -5 4 -9 0 -9 -7 0 -17 -54 -50 -65 -40 -5 4 -5 -1 -2 -10 4
-12 1 -18 -8 -18 -8 0 -15 -4 -15 -10 0 -5 -7 -10 -16 -10 -8 0 -13 -4 -10 -9
3 -4 -6 -13 -19 -19 -14 -7 -25 -16 -25 -22 0 -5 -7 -10 -16 -10 -8 0 -13 -3
-11 -7 6 -10 -49 -64 -57 -56 -3 4 -6 1 -6 -5 0 -6 -27 -39 -60 -73 -33 -35
-57 -65 -55 -67 3 -3 -7 -15 -20 -28 -14 -13 -25 -28 -25 -34 0 -5 -3 -10 -7
-10 -8 0 -43 -56 -42 -67 0 -3 -4 -9 -9 -12 -6 -3 -23 -32 -40 -63 -16 -32
-33 -54 -37 -50 -5 4 -5 1 0 -7 5 -9 1 -19 -11 -28 -10 -8 -17 -16 -15 -19 8
-10 -9 -65 -19 -59 -6 4 -9 3 -8 -2 4 -16 -13 -83 -21 -79 -4 3 -6 -8 -5 -25
1 -18 -4 -33 -14 -39 -11 -6 -12 -10 -4 -10 9 0 10 -5 4 -17 -5 -10 -8 -26 -7
-35 2 -10 -1 -18 -6 -18 -6 0 -8 -4 -4 -9 3 -5 1 -13 -5 -16 -8 -5 -8 -11 0
-20 7 -8 7 -15 1 -19 -5 -4 -8 -18 -5 -31 3 -16 0 -25 -8 -25 -8 0 -9 -3 -3
-8 13 -9 13 -112 1 -112 -6 0 -1 -7 10 -16 10 -8 14 -13 8 -10 -8 4 -11 -3
-10 -19 0 -14 6 -25 11 -25 6 0 3 -5 -5 -10 -8 -5 -10 -10 -4 -10 6 0 11 -12
12 -27 2 -35 8 -69 20 -110 6 -17 7 -35 4 -39 -4 -4 -1 -4 6 0 8 5 12 -1 13
-21 1 -15 1 -31 0 -35 0 -5 3 -8 9 -8 5 0 10 -7 10 -15 0 -8 5 -15 11 -15 5 0
8 -4 5 -8 -3 -5 3 -25 14 -44 10 -20 16 -39 12 -44 -4 -4 -1 -4 6 0 8 5 12 0
12 -14 0 -11 7 -23 15 -26 8 -4 12 -10 9 -15 -3 -5 0 -9 6 -9 6 0 8 -4 5 -10
-3 -5 1 -10 9 -10 9 0 15 -3 14 -7 -7 -24 152 -203 174 -195 5 1 8 -5 8 -13 0
-9 8 -19 18 -22 19 -8 33 -19 62 -47 10 -10 23 -15 29 -11 6 3 11 -1 11 -9 0
-9 8 -16 19 -16 11 0 21 -5 23 -10 2 -6 13 -12 25 -13 12 0 19 -5 17 -9 -5 -7
10 -12 29 -9 4 0 7 -4 7 -10 0 -6 7 -9 15 -5 8 3 15 1 15 -5 0 -6 7 -8 16 -5
8 3 12 2 9 -4 -3 -6 3 -10 14 -10 26 0 31 -1 59 -16 12 -6 32 -11 45 -10 12 1
25 -2 28 -7 4 -5 25 -9 48 -9 23 0 41 -4 41 -10 0 -6 6 -6 15 2 8 7 15 8 15 3
0 -12 143 -11 152 1 5 8 8 7 8 -1 0 -12 17 -12 38 0 7 5 12 3 12 -3 0 -8 6 -8
20 0 15 8 20 8 20 -2 0 -9 3 -9 8 -2 4 5 22 10 40 9 17 0 32 4 32 10 0 5 5 3
10 -5 5 -8 10 -10 10 -3 0 6 8 10 18 8 9 -1 22 1 27 5 6 4 17 7 25 8 14 0 62
7 102 15 10 2 20 6 24 9 3 4 17 4 31 2 15 -3 22 -1 18 6 -3 6 5 11 19 11 26 1
44 5 49 9 5 4 44 12 69 13 14 1 24 5 21 9 -4 7 22 12 30 6 2 -2 11 3 20 11 10
7 17 11 17 8 0 -3 15 0 34 8 18 8 36 11 40 8 3 -4 6 -2 6 4 0 5 6 10 13 11 6
0 30 6 52 12 22 6 46 12 53 12 6 1 12 4 12 8 0 4 8 7 18 7 33 -1 72 15 65 27
-5 7 -2 7 8 -1 9 -7 20 -8 29 -3 8 5 18 6 22 4 4 -3 8 -1 8 3 0 10 13 12 82
16 25 1 44 6 41 10 -3 5 3 7 13 6 11 -2 25 0 32 5 7 4 20 2 29 -6 9 -7 14 -8
10 -2 -4 7 0 14 8 18 8 3 15 0 15 -7 0 -7 3 -8 8 -2 4 6 36 10 72 10 36 0 73
3 82 7 9 5 19 4 22 0 3 -5 26 -9 53 -11 26 -1 50 -5 53 -9 3 -4 14 -8 25 -8
37 -3 126 -30 119 -37 -6 -6 12 -11 19 -5 6 5 125 -83 130 -97 4 -8 12 -15 19
-15 7 0 33 -25 56 -55 24 -30 48 -55 54 -55 5 0 8 -7 4 -15 -3 -8 -2 -15 3
-15 4 0 14 -12 21 -27 8 -16 23 -39 35 -52 12 -14 14 -21 5 -16 -10 5 -8 0 4
-13 11 -12 16 -25 13 -28 -3 -4 1 -20 9 -36 8 -16 12 -33 9 -38 -3 -6 -3 -10
2 -10 9 0 16 -61 14 -125 0 -22 -1 -55 -1 -72 0 -18 -5 -33 -11 -33 -6 0 -7
-4 -4 -10 3 -5 3 -16 -2 -22 -4 -7 -9 -20 -11 -28 -1 -8 -4 -20 -5 -26 -2 -7
-9 -20 -17 -30 -13 -16 -13 -17 0 -10 8 4 5 -1 -8 -12 -15 -14 -18 -22 -10
-25 7 -3 4 -6 -6 -6 -11 -1 -16 -4 -13 -8 4 -3 2 -12 -4 -20 -6 -7 -8 -13 -5
-13 4 0 -7 -13 -24 -30 -16 -16 -30 -32 -30 -36 0 -11 -129 -132 -134 -126 -3
3 -8 -3 -12 -12 -3 -9 -10 -14 -14 -11 -5 3 -11 1 -15 -5 -4 -6 -11 -8 -16 -4
-5 3 -8 0 -7 -8 2 -7 -3 -12 -9 -11 -7 2 -13 -2 -13 -8 0 -6 -7 -8 -16 -5 -10
4 -13 2 -8 -6 5 -8 2 -9 -10 -5 -9 4 -15 3 -12 -2 6 -9 -30 -24 -51 -22 -7 1
-13 -3 -13 -10 0 -6 -7 -9 -15 -5 -8 3 -15 2 -15 -2 0 -4 -8 -9 -17 -10 -59
-6 -92 -15 -87 -24 4 -6 -3 -5 -15 1 -11 7 -21 8 -21 3 0 -4 -36 -8 -80 -8
-44 1 -80 -3 -80 -7 0 -4 -8 -4 -17 1 -10 4 -28 7 -40 6 -13 0 -23 4 -23 10 0
7 -3 7 -8 1 -8 -12 -42 -16 -42 -6 0 4 -16 8 -35 9 -19 1 -44 6 -55 12 -15 8
-20 8 -20 -2 0 -10 -2 -10 -8 -1 -4 7 -24 13 -45 15 -20 1 -37 5 -37 9 0 3
-15 10 -32 14 -18 4 -40 10 -48 12 -8 3 -25 6 -37 7 -11 0 -19 4 -16 9 2 4 -5
7 -16 7 -12 0 -21 5 -21 12 0 6 -3 8 -7 5 -3 -4 -17 0 -31 9 -18 12 -23 12
-17 3 4 -9 2 -9 -7 1 -7 8 -17 15 -23 16 -25 3 -55 17 -55 27 0 6 -3 7 -7 4
-3 -4 -12 -2 -20 4 -7 6 -13 8 -13 3 0 -5 -4 -4 -8 3 -4 6 -14 13 -22 15 -8 2
-23 11 -34 21 -19 17 -21 16 -43 -10 -13 -15 -21 -33 -19 -40 3 -7 0 -12 -6
-10 -7 1 -12 -3 -13 -10 0 -7 -6 -18 -12 -24 -7 -7 -13 -19 -13 -26 0 -7 -5
-13 -11 -13 -5 0 -8 -4 -5 -9 3 -5 0 -11 -8 -14 -7 -3 -13 -17 -13 -31 0 -14
3 -24 6 -21 4 2 14 -5 21 -16 8 -10 20 -19 28 -19 7 0 10 -5 6 -12 -5 -8 -2
-9 9 -5 10 4 16 2 14 -5 -1 -7 3 -12 8 -13 11 0 36 -19 63 -47 9 -10 20 -18
25 -18 4 0 20 -11 35 -25 15 -14 33 -23 40 -20 7 3 10 0 7 -5 -3 -6 10 -19 29
-31 20 -12 36 -25 36 -30 0 -5 5 -9 11 -9 7 0 18 -8 26 -17 10 -12 12 -13 8
-3 -4 10 -2 9 8 -2 8 -10 17 -18 21 -18 5 0 17 -10 28 -22 11 -13 16 -16 12
-8 -7 13 -5 13 9 1 9 -7 14 -18 10 -24 -3 -5 -1 -7 5 -3 6 3 17 -1 25 -9 9 -8
20 -15 25 -15 5 0 17 -9 27 -20 10 -11 24 -20 32 -20 7 0 13 -4 13 -10 0 -5 7
-10 15 -10 8 0 15 -5 15 -11 0 -5 4 -8 9 -5 5 3 11 -1 15 -9 3 -9 12 -12 22
-8 10 4 15 2 11 -4 -3 -5 14 -19 38 -31 25 -12 45 -27 45 -32 0 -6 5 -8 10 -5
6 4 18 1 27 -7 13 -10 17 -10 20 0 3 6 13 12 23 12 10 0 22 5 25 10 4 6 11 8
16 5 5 -4 9 -1 9 5 0 6 4 9 9 5 5 -3 15 1 23 8 7 7 20 12 28 12 8 0 22 8 32
18 12 13 17 15 21 5 4 -11 6 -10 6 0 1 7 6 10 11 7 6 -3 10 -2 10 4 0 5 16 15
35 22 19 7 35 16 35 19 0 12 51 31 62 24 7 -5 8 -2 4 5 -5 8 0 14 13 18 12 3
21 9 21 14 0 5 6 9 14 9 7 0 19 7 26 15 7 8 16 12 21 9 5 -3 9 0 9 6 0 6 11
15 25 20 14 5 25 13 25 17 0 5 9 14 21 21 17 11 20 11 13 0 -7 -12 32 21 79
67 11 11 16 13 12 5 -4 -8 5 0 22 17 16 18 33 30 36 26 4 -3 7 1 7 10 0 9 4
17 9 17 9 0 151 136 151 145 0 3 3 4 6 3 3 -2 12 10 20 25 9 16 20 25 26 21 7
-4 8 -3 4 4 -4 7 10 30 31 53 21 22 38 45 38 51 0 5 8 16 18 23 10 7 18 17 18
22 -1 4 5 15 13 24 7 9 21 34 31 57 10 23 23 38 28 35 6 -4 8 0 4 10 -4 10 0
20 11 26 9 6 14 11 9 11 -4 0 0 11 9 25 9 14 14 29 10 32 -3 4 3 16 13 27 11
12 20 24 20 28 2 24 26 98 32 98 3 0 7 12 7 26 0 15 3 29 8 33 5 3 11 22 12
41 2 19 8 36 13 38 5 2 4 12 -1 23 -7 12 -7 19 -1 19 5 0 9 8 9 18 -1 9 2 28
6 41 6 18 5 22 -5 15 -12 -6 -12 -5 0 9 7 9 10 17 6 17 -4 0 -3 6 3 13 7 8 7
18 2 27 -5 9 -5 19 2 27 6 8 7 13 1 13 -10 0 -9 47 1 57 3 4 1 13 -6 20 -9 11
-9 16 1 23 8 4 9 10 4 13 -5 4 -10 21 -11 39 -3 41 -6 60 -13 73 -4 6 -5 20
-4 33 1 12 -2 22 -6 22 -4 0 -6 9 -4 20 2 11 -1 20 -7 20 -6 0 -8 9 -5 20 3
10 1 20 -5 22 -5 2 -11 12 -13 23 -2 11 -4 21 -5 23 -2 1 -3 7 -4 12 0 6 -8
15 -16 20 -13 9 -13 10 0 10 9 0 11 3 4 8 -12 8 -28 43 -26 55 1 4 -2 7 -8 7
-5 0 -10 9 -10 21 0 15 -5 19 -16 15 -8 -3 -12 -2 -9 4 6 9 -8 42 -27 64 -4 6
-17 22 -28 35 -11 13 -17 28 -14 33 3 4 2 7 -3 6 -4 -2 -10 2 -13 7 -8 18
-131 135 -141 135 -6 0 -7 5 -4 10 3 6 -1 10 -9 10 -8 0 -22 10 -30 22 -9 12
-16 19 -16 15 0 -8 -16 4 -52 38 -11 11 -17 14 -13 6 5 -8 -7 -3 -26 11 -19
14 -44 29 -57 33 -12 3 -19 11 -16 17 4 7 2 8 -4 4 -6 -4 -19 -2 -29 3 -26 14
-57 24 -65 23 -5 -1 -8 2 -8 8 0 5 -7 7 -16 3 -9 -3 -19 -1 -23 5 -4 6 -23 12
-44 14 -20 1 -37 5 -37 8 0 3 -15 7 -32 8 -49 4 -67 7 -74 15 -4 3 -15 2 -25
-4 -13 -7 -19 -6 -19 1 0 7 -6 8 -17 1 -9 -5 -26 -6 -37 -1 -23 8 -108 6 -201
-6 -84 -10 -100 -12 -100 -14 0 -1 -20 -4 -45 -6 -24 -3 -47 -8 -50 -12 -3 -4
-18 -8 -35 -9 -48 -4 -69 -8 -81 -15 -6 -4 -25 -10 -42 -13 -17 -3 -42 -9 -55
-14 -14 -6 -28 -7 -31 -4 -3 4 -6 1 -6 -6 0 -7 -5 -9 -10 -6 -6 4 -17 1 -25
-5 -8 -7 -15 -9 -15 -5 0 4 -7 2 -15 -5 -8 -7 -15 -9 -15 -5 0 4 -6 3 -12 -2
-7 -6 -23 -9 -35 -8 -12 1 -20 -2 -17 -7 3 -4 -1 -8 -8 -9 -28 -1 -51 -8 -57
-16 -6 -7 -14 -9 -63 -15 -10 -1 -18 -6 -18 -11 0 -5 -9 -7 -20 -4 -11 3 -26
0 -33 -7 -6 -7 -15 -13 -19 -14 -5 -1 -9 -2 -10 -3 -2 0 -14 -3 -28 -6 -39 -7
-55 -11 -55 -13 0 -1 -11 -4 -25 -6 -13 -2 -27 -9 -31 -15 -4 -8 -9 -8 -13 -1
-4 7 -15 6 -33 -3 -15 -8 -30 -12 -35 -9 -5 3 -14 2 -21 -4 -7 -5 -24 -8 -39
-7 -16 1 -28 -2 -28 -6 0 -5 -7 -6 -15 -3 -8 4 -22 1 -29 -5 -10 -8 -16 -9
-21 -1 -3 6 -12 7 -18 3 -22 -14 -49 -14 -41 -1 6 10 4 10 -7 2 -19 -15 -109
-16 -109 -1 0 8 -3 8 -8 2 -9 -13 -32 -18 -32 -7 0 4 -10 8 -22 9 -54 1 -69 3
-64 11 2 4 -12 8 -32 9 -20 0 -38 6 -40 12 -2 6 -11 11 -20 11 -19 1 -54 24
-47 31 2 3 -5 5 -15 6 -11 1 -32 13 -47 27 -14 14 -31 22 -37 19 -6 -3 -8 -3
-4 2 8 8 -15 35 -31 35 -5 0 -13 5 -17 12 -4 7 -3 8 4 4 28 -17 9 6 -20 25
-18 12 -25 18 -14 15 13 -5 11 1 -10 23 -39 38 -56 61 -48 61 4 0 -1 9 -10 19
-10 11 -15 24 -12 30 4 5 1 13 -4 16 -16 10 -39 77 -42 123 -1 6 -6 12 -11 12
-5 0 -4 6 2 14 9 10 9 16 1 21 -8 5 -7 11 2 23 8 9 8 13 2 9 -13 -8 -13 50 0
71 4 7 2 12 -4 12 -8 0 -8 6 0 20 6 11 8 25 5 30 -3 5 -1 11 5 15 6 4 8 10 5
15 -3 5 -1 11 4 15 6 3 8 12 5 19 -3 7 1 16 9 19 9 3 13 16 12 31 -2 14 0 24
3 23 4 -1 9 3 11 8 2 6 12 22 22 37 10 14 19 29 19 33 0 4 11 18 25 31 16 15
20 24 12 27 -7 3 -4 6 6 6 9 1 17 8 17 17 0 8 4 13 8 10 11 -7 42 30 34 40 -4
4 -2 4 4 1 6 -4 27 9 45 27 18 19 37 32 41 30 5 -3 11 2 14 10 3 9 10 13 15
10 5 -3 9 0 9 6 0 6 5 8 10 5 6 -3 10 -2 10 2 0 7 39 27 73 38 4 1 10 4 15 5
4 1 10 2 15 1 4 0 7 4 7 10 0 8 4 8 14 0 11 -10 17 -8 25 6 8 14 10 15 11 3 0
-13 1 -13 10 0 5 8 10 11 10 7 0 -4 9 -3 20 3 14 8 20 8 20 0 0 -6 5 -8 12 -3
17 10 108 10 108 0 0 -4 9 -3 20 3 11 6 20 7 20 1 0 -5 10 -9 23 -10 44 -1 57
-4 57 -15 0 -7 3 -6 8 1 6 10 14 9 35 -2 20 -10 27 -11 27 -2 0 9 2 9 8 1 10
-16 79 -37 93 -28 8 4 9 3 5 -4 -6 -11 5 -15 30 -11 4 0 10 -3 13 -8 3 -5 43
-24 88 -43 44 -19 79 -39 76 -45 -4 -5 -3 -7 2 -3 4 4 25 -2 46 -12 42 -22 64
-26 54 -10 -3 6 1 13 10 16 9 4 14 13 11 21 -3 8 -2 12 3 9 4 -3 14 6 21 19 7
14 17 25 22 25 5 0 6 5 3 10 -3 6 1 13 9 16 9 3 14 10 11 14 -3 5 -1 11 5 15
15 9 33 46 21 43 -5 -2 -16 5 -23 14 -7 9 -20 18 -28 20 -8 2 -21 11 -28 21
-7 9 -20 17 -28 17 -8 0 -12 5 -9 10 3 6 -1 10 -10 10 -9 0 -13 5 -9 11 4 7 1
10 -7 7 -8 -3 -28 9 -44 26 -17 17 -37 32 -45 34 -8 2 -22 12 -32 22 -9 11
-21 20 -27 20 -6 0 -11 3 -11 8 0 4 -10 12 -22 17 -13 6 -22 16 -20 23 1 7 -5
12 -14 12 -9 0 -25 9 -35 21 -10 11 -22 18 -28 15 -5 -4 -13 -1 -17 5 -5 8 -3
9 6 4 9 -5 11 -4 6 3 -4 7 -11 12 -16 12 -10 0 -38 21 -72 53 -10 9 -18 14
-18 11 0 -4 -7 -1 -15 6 -8 7 -12 17 -8 23 3 5 1 7 -4 4 -6 -4 -23 6 -39 21
-15 15 -24 20 -19 12 8 -13 6 -13 -8 -1 -9 7 -14 18 -10 24 4 6 1 7 -7 2 -8
-5 -18 -2 -25 9 -11 14 -14 14 -25 1z m-825 -2075 c10 -11 16 -20 13 -20 -3 0
-13 9 -23 20 -10 11 -16 20 -13 20 3 0 13 -9 23 -20z"/>
<path d="M3823 5974 c-661 -660 -961 -967 -959 -979 1 -10 17 -26 35 -36 20
-11 27 -19 19 -22 -9 -4 -7 -6 4 -6 9 -1 20 -10 23 -21 4 -11 11 -18 16 -15 5
4 14 -5 21 -19 6 -14 15 -26 20 -26 5 0 7 4 4 9 -4 5 4 7 16 3 14 -3 19 -2 14
6 -7 11 6 17 27 13 5 -1 6 3 2 8 -3 6 4 15 15 21 12 6 18 16 14 23 -5 9 -4 9
5 1 10 -9 21 -3 48 25 19 20 31 29 27 21 -4 -9 2 -7 14 5 56 52 65 59 58 48
-4 -7 -2 -13 3 -13 6 0 11 5 11 11 0 5 4 8 9 5 5 -4 11 -1 13 5 2 6 25 12 51
13 26 0 47 6 47 11 0 6 5 3 10 -5 9 -13 10 -13 10 0 1 12 3 11 11 -3 6 -9 14
-15 19 -12 5 3 11 1 15 -5 3 -5 14 -10 23 -10 9 0 29 -12 45 -27 17 -16 26
-21 22 -13 -6 12 60 -43 85 -71 3 -3 13 -9 23 -12 11 -4 21 -16 24 -27 3 -11
8 -18 12 -16 3 2 15 -6 26 -17 11 -11 13 -16 5 -12 -13 8 -13 7 -1 -8 7 -9 20
-17 27 -17 8 0 14 -7 14 -16 0 -10 5 -14 16 -10 8 3 12 2 9 -4 -3 -6 -1 -10 4
-10 6 0 11 -7 11 -17 0 -9 3 -14 6 -10 8 7 53 -36 47 -45 -2 -5 3 -8 12 -8 9
0 13 -4 10 -10 -3 -5 -1 -10 5 -10 15 0 40 -25 40 -41 0 -7 3 -10 6 -6 8 8 34
-18 34 -33 0 -6 5 -8 10 -5 6 3 10 -2 10 -11 0 -10 3 -15 6 -11 8 7 54 -38 54
-53 0 -6 5 -8 10 -5 6 3 10 -2 10 -11 0 -10 3 -15 6 -11 8 7 53 -36 47 -45 -2
-5 3 -8 11 -8 9 0 16 -5 16 -11 0 -5 4 -7 10 -4 6 3 7 -1 4 -9 -3 -9 -1 -16 5
-16 7 0 22 -10 34 -21 12 -12 15 -18 7 -14 -13 8 -13 7 -1 -8 7 -9 18 -17 23
-17 14 0 38 -27 31 -34 -4 -3 1 -6 11 -6 9 0 14 -4 11 -10 -3 -5 -1 -10 5 -10
15 0 41 -26 33 -34 -4 -3 -1 -6 6 -6 6 0 22 -10 34 -21 12 -12 15 -18 7 -14
-13 8 -13 7 -1 -8 7 -9 20 -17 27 -17 8 0 14 -7 14 -16 0 -10 5 -14 16 -10 8
3 12 2 9 -4 -3 -6 -1 -10 4 -10 6 0 11 -7 11 -17 0 -9 3 -14 6 -10 8 7 53 -36
47 -45 -2 -5 3 -8 12 -8 9 0 13 -4 10 -10 -3 -5 -1 -10 5 -10 15 0 40 -25 40
-41 0 -7 3 -10 6 -6 8 8 34 -18 34 -33 0 -6 5 -8 10 -5 6 3 10 -2 10 -11 0
-10 3 -15 6 -11 8 7 54 -38 54 -53 0 -6 5 -8 10 -5 6 3 10 -2 10 -11 0 -10 3
-15 6 -11 8 7 53 -36 47 -45 -2 -5 3 -8 11 -8 9 0 16 -5 16 -11 0 -5 4 -7 10
-4 6 3 7 -1 4 -9 -3 -9 -1 -16 5 -16 7 0 22 -10 34 -21 12 -12 15 -18 7 -14
-13 8 -13 7 -1 -8 7 -9 20 -17 27 -17 8 0 14 -8 14 -17 0 -9 3 -14 6 -10 8 8
34 -18 34 -33 0 -6 5 -8 10 -5 6 3 10 -2 10 -11 0 -10 3 -15 6 -11 8 7 54 -38
54 -53 0 -6 5 -8 10 -5 6 3 10 -2 10 -11 0 -10 3 -15 6 -11 8 7 53 -36 47 -45
-2 -5 3 -8 11 -8 9 0 16 -5 16 -11 0 -5 4 -7 10 -4 6 3 7 -1 4 -9 -3 -9 -1
-16 6 -16 15 0 40 -25 40 -40 0 -6 5 -8 10 -5 6 3 10 -2 10 -11 0 -10 3 -15 6
-11 8 7 53 -36 47 -45 -2 -5 3 -8 11 -8 9 0 16 -5 16 -11 0 -5 4 -7 10 -4 6 3
7 -1 4 -9 -4 -11 0 -16 10 -16 9 0 16 -6 16 -14 0 -7 8 -20 17 -27 15 -12 16
-12 8 1 -4 8 1 6 12 -5 11 -11 19 -23 16 -27 -2 -5 1 -8 7 -8 14 0 40 -25 40
-39 0 -6 3 -10 8 -8 4 1 9 -3 11 -8 8 -18 26 -33 34 -28 4 2 7 -3 7 -12 0 -9
5 -13 10 -10 9 6 14 -8 11 -27 0 -5 2 -7 7 -5 10 3 82 -75 77 -84 -3 -3 3 -13
13 -20 16 -13 16 -13 2 6 -14 18 -14 19 2 7 9 -8 14 -20 11 -28 -3 -8 0 -14 7
-14 6 0 8 -4 5 -10 -3 -5 -1 -10 6 -10 7 0 9 -3 6 -7 -4 -3 -2 -12 4 -20 6 -7
9 -22 6 -33 -3 -11 -1 -18 4 -14 5 3 9 -9 9 -26 0 -22 -4 -29 -12 -24 -10 6
-10 5 -1 -8 7 -8 10 -18 6 -22 -4 -3 -8 -17 -10 -29 -2 -12 -8 -23 -13 -25 -6
-2 -10 -12 -10 -23 0 -11 -7 -22 -15 -25 -8 -4 -13 -10 -10 -15 6 -8 -12 -33
-50 -72 -11 -11 -14 -17 -7 -12 11 6 11 3 1 -13 -7 -12 -17 -18 -21 -16 -4 3
-8 -2 -8 -10 0 -8 -8 -17 -19 -21 -10 -3 -18 -13 -17 -23 0 -9 -5 -16 -12 -14
-7 1 -17 -10 -23 -25 -6 -15 -15 -31 -22 -35 -12 -7 99 -135 120 -137 6 0 13
-9 15 -18 3 -13 313 292 1047 1025 982 981 1042 1044 1025 1058 -11 9 -12 12
-4 8 11 -6 10 -2 -3 13 -9 11 -14 23 -10 26 3 4 0 7 -7 7 -7 0 -10 3 -7 6 4 4
-1 14 -11 23 -9 9 -18 23 -20 31 -2 8 -8 17 -13 18 -5 2 -9 8 -9 14 0 6 -11
26 -25 43 -13 18 -21 35 -18 39 4 3 1 6 -5 6 -7 0 -12 7 -12 15 0 8 -4 15 -8
15 -5 0 -19 20 -32 45 -13 25 -26 45 -30 45 -3 0 -12 16 -20 35 -7 19 -17 32
-22 29 -7 -5 -12 10 -9 29 0 4 -6 7 -15 7 -8 0 -13 4 -9 9 3 5 -1 16 -9 24 -8
8 -12 17 -9 21 4 3 -1 6 -11 6 -9 0 -14 5 -11 10 3 6 1 10 -5 10 -6 0 -9 4 -5
9 3 5 -3 16 -13 23 -18 12 -22 18 -22 36 0 4 -10 18 -22 32 -13 14 -29 37 -37
53 -8 15 -18 27 -23 27 -4 0 -8 7 -8 15 0 8 -4 15 -10 15 -5 0 -10 5 -10 10 0
19 -50 66 -58 55 -4 -5 -16 -17 -26 -25 -18 -13 -19 -13 -12 0 4 8 -1 4 -12
-9 -11 -14 -27 -26 -37 -27 -9 -1 -24 -12 -32 -23 -8 -12 -20 -21 -26 -21 -7
0 -18 -9 -25 -21 -8 -12 -9 -18 -4 -15 10 6 27 -22 23 -38 -1 -4 4 -14 10 -22
6 -8 8 -14 3 -14 -5 0 -4 -4 3 -8 6 -4 13 -16 15 -27 1 -11 7 -23 11 -26 4 -3
9 -16 10 -27 1 -12 5 -22 10 -22 5 0 7 -7 3 -15 -3 -8 -1 -15 5 -15 6 0 7 -4
4 -10 -3 -5 -2 -10 2 -10 5 0 10 -12 11 -27 1 -16 7 -29 12 -31 6 -2 10 -16
10 -31 0 -15 3 -31 7 -35 7 -7 11 -24 15 -63 1 -13 5 -23 9 -23 3 0 6 -6 6
-12 2 -31 13 -135 17 -153 2 -11 -1 -26 -7 -32 -6 -9 -6 -13 3 -13 8 0 9 -6 5
-17 -4 -10 -8 -27 -9 -38 -1 -11 -6 -27 -11 -35 -5 -8 -8 -23 -7 -32 2 -10 -1
-18 -7 -18 -6 0 -8 -7 -5 -15 4 -8 1 -15 -6 -15 -6 0 -8 -4 -5 -10 3 -5 1 -10
-6 -10 -7 0 -9 -3 -6 -7 4 -3 -3 -18 -15 -31 -13 -14 -17 -22 -10 -18 16 10
-47 -77 -88 -121 -17 -17 -30 -34 -30 -37 0 -12 -39 -44 -46 -38 -4 4 -4 -1
-1 -10 3 -10 1 -20 -5 -24 -7 -5 -8 -2 -4 7 5 9 2 8 -6 -2 -7 -8 -22 -21 -33
-28 -18 -11 -18 -12 -1 -7 15 5 15 2 -5 -19 -13 -13 -30 -25 -37 -25 -8 0 -10
-5 -6 -12 5 -7 2 -9 -9 -5 -11 4 -14 2 -10 -8 3 -10 -5 -18 -22 -25 -14 -5
-24 -13 -22 -17 2 -5 -4 -16 -14 -25 -12 -12 -19 -13 -23 -5 -3 9 -5 9 -5 0
-1 -15 -48 -63 -61 -63 -6 0 -9 -3 -7 -7 1 -5 -1 -9 -6 -10 -4 -2 -23 -18 -42
-38 -19 -19 -35 -32 -35 -28 0 3 -9 -4 -19 -16 -11 -12 -22 -21 -25 -19 -3 2
-14 -4 -24 -13 -10 -8 -26 -18 -35 -22 -9 -3 -17 -11 -17 -17 0 -6 -4 -9 -10
-5 -5 3 -18 1 -30 -5 -11 -5 -29 -15 -41 -21 -16 -8 -19 -8 -13 2 7 12 5 12
-43 -8 -7 -3 -13 0 -13 5 0 6 -9 9 -20 7 -11 -2 -20 0 -20 5 0 4 -9 6 -20 3
-11 -3 -20 -1 -20 4 0 14 -49 35 -62 27 -7 -4 -8 -2 -4 5 4 6 0 14 -11 18 -10
4 -24 13 -32 21 -8 7 -24 20 -37 29 -13 8 -21 20 -17 26 3 6 1 7 -6 3 -14 -9
-43 12 -35 25 5 8 -10 13 -29 10 -5 -1 -6 3 -2 9 3 5 1 10 -4 10 -6 0 -11 7
-11 16 0 8 -4 13 -9 10 -11 -7 -43 29 -34 38 5 4 3 6 -3 4 -6 -2 -66 52 -132
119 -66 67 -122 119 -125 117 -2 -3 -8 7 -11 21 -4 14 -10 23 -15 21 -10 -6
-87 75 -83 87 1 5 -1 6 -6 3 -5 -3 -14 4 -22 14 -8 10 -17 17 -21 15 -4 -3
-10 7 -13 20 -4 14 -10 23 -15 21 -11 -7 -43 29 -34 38 5 4 3 6 -3 4 -6 -1
-57 43 -113 100 -56 56 -105 102 -109 102 -17 0 -10 41 9 53 10 6 19 18 19 25
0 8 5 10 12 6 8 -5 9 -2 5 10 -4 10 -3 15 3 11 5 -3 15 3 22 15 7 11 18 20 25
20 7 0 13 7 13 16 0 8 5 12 11 9 6 -4 9 0 7 11 -2 14 2 18 17 16 11 -2 17 -1
13 4 -4 4 5 17 21 28 15 12 29 24 30 29 2 12 40 47 51 47 6 0 10 7 10 16 0 8
5 12 11 9 6 -4 9 0 7 11 -2 14 2 18 17 16 11 -2 17 -1 13 4 -4 4 7 18 25 31
17 13 32 28 32 33 0 6 3 10 7 11 3 0 34 27 69 60 34 32 67 56 73 52 6 -3 8 -3
4 1 -8 10 14 36 25 29 4 -2 7 0 7 5 0 9 50 37 63 34 4 -1 7 3 7 9 0 5 5 7 10
4 6 -4 17 -1 25 5 8 7 15 10 15 7 0 -3 16 -1 35 3 19 4 37 4 40 -1 3 -4 13 -5
22 -2 11 4 14 3 9 -5 -4 -8 -2 -10 8 -6 8 3 28 -2 45 -11 17 -8 31 -13 31 -11
0 3 16 -6 36 -19 20 -14 40 -22 45 -19 5 3 9 -2 9 -10 0 -14 12 -20 33 -17 4
0 7 -3 7 -9 0 -5 7 -10 16 -10 8 0 12 -4 9 -10 -3 -5 3 -10 14 -10 12 0 21 -4
21 -10 0 -19 29 -10 48 15 11 14 26 25 33 25 7 0 10 3 6 6 -9 9 21 36 33 29 6
-3 7 1 4 9 -4 11 0 16 11 16 9 0 13 5 10 10 -3 6 0 13 9 16 15 6 18 44 4 44
-14 0 -127 118 -120 125 4 3 -2 3 -13 -1 -15 -6 -17 -4 -11 11 4 11 4 17 1 13
-10 -10 -45 24 -38 36 3 6 3 8 -1 4 -10 -8 -57 32 -50 44 3 4 0 8 -6 8 -6 0
-39 28 -73 63 -33 34 -65 61 -70 59 -5 -1 -6 2 -2 8 3 5 1 10 -5 10 -6 0 -8 5
-5 10 3 6 0 10 -7 10 -8 0 -20 9 -28 20 -8 11 -20 20 -27 20 -7 0 -12 3 -11 8
2 4 -29 39 -69 79 -39 39 -68 74 -65 78 4 3 -2 3 -13 -1 -15 -6 -17 -4 -11 11
4 11 4 17 1 13 -10 -10 -45 24 -38 36 3 6 3 8 -1 4 -10 -8 -57 32 -50 44 3 4
-1 8 -8 8 -8 0 -20 9 -28 20 -8 11 -20 20 -28 20 -7 0 -10 5 -7 10 3 6 -1 13
-9 16 -9 3 -14 10 -11 14 3 5 -4 8 -16 7 -11 -1 -38 -20 -59 -43 -21 -23 -41
-39 -44 -36 -3 3 -6 -3 -6 -13 0 -10 -3 -15 -6 -12 -8 7 -44 -36 -44 -52 0 -6
5 -11 11 -11 5 0 8 -4 5 -9 -3 -5 1 -12 10 -15 8 -3 13 -10 10 -15 -3 -5 1
-14 9 -21 8 -7 15 -19 15 -26 0 -8 4 -14 9 -14 5 0 12 -11 15 -25 4 -16 11
-23 18 -19 7 5 9 2 5 -9 -3 -9 -2 -19 4 -22 5 -4 7 -10 4 -15 -3 -4 2 -11 11
-14 14 -5 14 -9 3 -23 -12 -14 -12 -16 1 -11 12 4 15 -7 16 -66 0 -39 -2 -73
-7 -76 -4 -3 -9 -16 -10 -30 -2 -14 -12 -34 -22 -45 -10 -10 -15 -25 -13 -32
3 -8 -2 -13 -15 -13 -11 0 -17 -4 -14 -10 3 -5 -10 -26 -29 -46 -20 -20 -33
-41 -29 -47 3 -6 1 -7 -5 -3 -6 3 -16 -3 -22 -14 -6 -11 -18 -20 -28 -20 -14
0 -14 -2 -3 -9 11 -7 9 -10 -7 -15 -12 -4 -24 -16 -27 -27 -4 -10 -11 -17 -16
-14 -5 4 -9 1 -9 -5 0 -6 -4 -8 -10 -5 -5 3 -7 0 -4 -9 3 -9 -2 -17 -15 -21
-11 -3 -23 -15 -26 -26 -4 -10 -10 -17 -15 -14 -5 3 -15 -6 -22 -19 -7 -14
-17 -25 -23 -25 -5 -1 -10 -5 -10 -11 0 -5 -4 -10 -8 -9 -11 1 -47 -41 -47
-54 0 -6 -3 -7 -7 -4 -3 4 -19 -6 -34 -22 -15 -16 -30 -26 -34 -23 -3 4 -3 -1
0 -10 4 -11 0 -18 -14 -23 -11 -3 -23 -15 -26 -26 -4 -10 -10 -17 -13 -15 -4
2 -16 -3 -27 -11 -17 -13 -17 -15 -2 -9 11 3 16 2 12 -4 -13 -21 -40 -8 -94
48 -30 31 -59 56 -62 55 -4 -1 -10 9 -13 24 -4 14 -10 23 -13 19 -9 -9 -44 25
-37 36 3 4 1 7 -4 6 -5 -2 -64 52 -130 119 -66 67 -122 119 -125 117 -2 -3 -8
7 -11 21 -4 14 -10 23 -15 21 -11 -7 -43 29 -34 38 5 4 3 6 -3 4 -6 -1 -84 70
-173 160 -89 89 -166 162 -172 162 -5 0 -8 3 -7 8 2 4 -18 28 -44 53 -26 25
-45 49 -41 52 3 4 1 7 -6 7 -11 0 -34 42 -35 65 -2 32 32 84 97 150 40 41 72
75 70 75 -2 0 5 8 15 18 9 11 19 18 22 18 3 -1 30 25 61 56 31 32 54 58 51 58
-3 0 6 9 19 19 14 10 52 46 85 78 33 33 72 68 87 78 15 9 24 21 21 26 -3 5 3
6 12 2 14 -5 16 -3 10 12 -4 11 -4 16 0 13 4 -4 16 -2 28 4 11 7 24 11 28 10
4 -1 4 6 1 15 -4 11 -3 14 5 9 7 -4 12 -2 12 4 0 6 5 8 10 5 6 -3 10 -1 10 4
0 6 6 11 14 11 8 0 17 8 20 17 6 14 9 15 15 4 7 -10 11 -9 22 7 8 10 17 19 22
19 4 1 21 3 37 7 17 3 33 5 36 5 4 0 11 5 15 13 5 7 9 8 9 2 0 -7 10 -9 25 -6
13 2 33 1 42 -3 10 -4 30 -8 46 -8 15 0 27 -4 27 -9 0 -5 4 -7 9 -4 8 5 45 -4
91 -22 8 -3 18 -6 23 -7 4 -2 9 -4 12 -5 6 -3 12 -5 43 -15 12 -4 22 -12 22
-18 0 -6 3 -8 6 -4 8 7 66 -21 76 -37 5 -7 8 -6 8 4 1 11 6 8 20 -9 11 -13 20
-21 20 -17 0 8 79 -34 86 -46 3 -5 15 0 26 11 10 12 16 26 13 31 -4 6 -3 10 2
9 19 -3 34 2 29 9 -3 5 6 21 20 37 13 15 24 32 24 37 0 5 5 6 10 3 9 -5 12 1
9 21 0 4 5 10 12 14 8 6 6 13 -10 26 -13 11 -35 30 -50 44 -14 14 -39 34 -53
44 -15 11 -24 24 -21 29 3 6 1 7 -6 3 -6 -4 -14 0 -17 8 -3 9 -10 13 -15 10
-5 -3 -9 3 -9 12 0 10 -3 15 -6 11 -3 -3 -23 12 -45 34 -21 21 -45 39 -54 39
-9 0 -14 4 -11 8 3 5 -4 16 -15 25 -10 9 -19 14 -19 11 0 -4 -13 8 -29 26 -18
22 -33 30 -41 25 -7 -5 -11 -4 -7 1 8 14 -20 47 -34 38 -7 -4 -10 -3 -7 2 7
11 -17 35 -26 27 -3 -4 -6 2 -6 12 0 10 -2 16 -5 13 -3 -3 -21 10 -41 28 -19
19 -39 34 -44 34 -6 0 -10 6 -10 14 0 8 -9 18 -20 21 -11 3 -20 11 -20 16 0 6
-4 8 -9 4 -5 -3 -11 3 -13 12 -3 13 -285 -263 -965 -943z"/>
<path d="M2421 4783 c-1 -7 -7 -13 -13 -13 -7 0 -24 -14 -37 -30 -13 -16 -27
-27 -32 -24 -5 3 -6 -3 -2 -12 3 -10 2 -15 -3 -12 -19 12 -29 -20 -30 -98 0
-61 -5 -88 -18 -109 -10 -15 -13 -24 -7 -21 21 14 13 0 -39 -61 -5 -7 -10 -14
-10 -17 0 -15 -51 -57 -61 -50 -7 4 -9 3 -5 -4 8 -14 -1652 -1675 -1666 -1666
-6 4 -9 3 -6 -2 7 -11 -17 -35 -26 -27 -3 4 -6 1 -6 -5 0 -7 -7 -12 -15 -12
-8 0 -15 -5 -15 -12 0 -6 -3 -8 -7 -5 -3 4 -13 1 -21 -6 -13 -10 -14 -9 -7 3
7 12 6 13 -6 3 -10 -8 -42 -12 -92 -10 -57 2 -78 0 -82 -11 -2 -7 -10 -10 -16
-6 -8 4 -9 3 -5 -4 4 -7 2 -12 -3 -12 -6 0 -11 -7 -11 -15 0 -8 -7 -15 -15
-15 -9 0 -20 -11 -27 -24 -8 -20 -8 -28 4 -40 9 -8 18 -12 22 -9 3 4 6 -4 6
-16 0 -17 4 -21 16 -17 8 3 13 2 10 -3 -5 -8 41 -61 156 -181 24 -24 34 -38
23 -30 -19 13 -8 0 82 -94 21 -22 37 -43 36 -47 -2 -4 6 -11 17 -14 11 -4 18
-11 15 -16 -4 -5 -1 -9 5 -9 6 0 8 -5 4 -12 -5 -8 -2 -9 10 -5 9 4 15 3 11 -2
-3 -6 3 -14 12 -20 10 -6 14 -11 10 -11 -5 0 10 -18 32 -39 23 -22 41 -43 41
-48 0 -5 10 -19 23 -30 12 -11 43 -45 69 -74 25 -30 60 -69 77 -88 17 -19 31
-38 31 -43 0 -4 11 -7 25 -6 14 1 25 6 25 11 0 4 5 5 12 1 7 -4 8 -3 4 5 -4 6
0 14 8 17 9 3 13 10 10 15 -3 5 2 9 10 9 9 0 15 6 14 13 -2 6 2 11 9 10 7 -2
17 6 23 17 6 12 16 18 23 14 7 -4 9 -3 4 1 -4 5 0 17 10 27 15 17 15 19 0 36
-10 10 -17 24 -17 30 0 7 -3 12 -8 12 -4 0 -14 15 -21 33 -8 17 -21 38 -28 45
-7 8 -11 18 -8 23 4 5 1 9 -4 9 -6 0 -11 6 -11 14 0 7 -7 19 -15 26 -9 7 -14
19 -11 26 3 7 -2 15 -10 18 -9 3 -12 10 -9 16 3 5 1 10 -5 10 -6 0 -8 5 -5 10
3 6 1 10 -5 10 -6 0 -8 5 -5 10 3 6 1 10 -6 10 -7 0 -10 3 -6 6 3 4 -1 13 -9
22 -10 10 -12 17 -5 21 7 4 3 12 -8 21 -11 7 -17 19 -14 27 3 7 0 13 -7 13 -6
0 -8 5 -5 10 4 6 1 18 -7 27 -11 14 -11 16 2 8 13 -8 13 -6 2 8 -18 21 -20
160 -4 180 7 8 9 16 6 20 -3 3 0 16 7 29 7 12 14 30 15 38 2 8 8 16 13 18 6 2
11 10 11 18 0 8 5 14 10 14 6 0 10 7 10 15 0 8 5 15 12 15 6 0 9 3 5 6 -3 3 6
17 20 30 14 13 23 24 19 24 -11 0 17 26 34 33 9 3 10 6 3 6 -7 1 41 55 105
121 65 66 118 121 117 123 -1 1 7 10 17 20 10 9 18 15 18 13 0 -2 23 19 50 46
l50 49 28 -32 c15 -18 26 -37 24 -41 -1 -4 2 -7 7 -6 8 3 131 -108 131 -118 0
-2 25 -27 55 -55 30 -29 52 -56 48 -62 -3 -6 -1 -7 4 -4 6 4 29 -13 52 -38 23
-25 44 -45 47 -45 10 0 59 -64 56 -73 -1 -5 1 -6 6 -3 12 7 84 -68 75 -78 -5
-4 -3 -6 3 -4 10 3 134 -106 134 -118 0 -2 25 -27 55 -55 30 -29 52 -56 48
-62 -3 -6 -2 -7 4 -4 13 8 86 -67 76 -78 -5 -4 -3 -5 3 -2 7 4 30 -13 53 -38
23 -25 46 -45 51 -45 6 0 10 -4 10 -8 0 -11 161 -172 172 -172 4 0 8 -5 8 -10
0 -6 25 -33 55 -61 30 -29 52 -56 48 -62 -3 -6 -1 -7 4 -4 6 4 29 -13 52 -38
23 -25 44 -45 47 -45 10 0 59 -64 56 -73 -1 -5 1 -6 6 -3 12 7 84 -68 75 -79
-5 -4 -3 -5 3 -2 7 4 30 -13 53 -38 23 -25 46 -45 51 -45 6 0 10 -4 10 -8 0
-11 161 -172 172 -172 4 0 8 -5 8 -10 0 -6 25 -33 55 -61 30 -29 52 -56 48
-62 -3 -6 -2 -7 4 -4 13 8 86 -67 76 -77 -5 -4 -3 -6 3 -4 16 4 114 -89 114
-109 0 -9 3 -14 6 -10 6 6 34 -16 34 -27 0 -3 10 -16 23 -29 34 -36 57 -67 51
-67 -4 0 -1 -7 6 -15 6 -8 9 -19 5 -25 -4 -6 -1 -9 6 -8 7 2 13 -6 14 -17 0
-11 3 -24 6 -30 11 -20 -4 -133 -19 -145 -4 -3 -8 -11 -10 -18 -1 -7 -13 -30
-26 -50 -13 -20 -24 -41 -25 -47 -1 -5 -11 -14 -21 -20 -10 -5 -19 -14 -20
-20 -1 -5 -12 -22 -26 -37 -13 -15 -24 -33 -24 -39 0 -5 -4 -7 -10 -4 -5 3
-10 1 -10 -5 0 -6 -13 -25 -29 -42 -24 -26 -27 -35 -18 -49 6 -10 15 -15 19
-13 4 3 8 -2 8 -11 0 -8 10 -20 23 -25 12 -5 19 -9 15 -9 -7 -1 34 -45 64 -69
15 -12 86 55 658 626 352 353 640 645 640 651 0 14 -48 61 -62 61 -6 0 -9 3
-6 6 3 3 -13 23 -35 44 -41 38 -42 38 -71 22 -16 -10 -31 -25 -34 -35 -4 -15
-7 -16 -13 -5 -7 10 -9 8 -9 -6 0 -11 -3 -17 -6 -13 -5 5 -38 -20 -80 -61 -8
-7 -14 -10 -14 -5 0 4 -5 0 -11 -9 -5 -10 -16 -18 -23 -18 -8 0 -17 -7 -20
-16 -3 -8 -10 -12 -16 -9 -5 3 -10 1 -10 -4 0 -6 -7 -11 -15 -11 -8 0 -15 -4
-15 -9 0 -7 -29 -19 -60 -25 -3 -1 -11 -5 -17 -9 -7 -5 -17 -6 -22 -2 -5 3
-12 1 -15 -3 -6 -10 -48 -8 -65 2 -5 3 -12 0 -14 -6 -4 -10 -6 -10 -6 0 -1 6
-10 12 -20 12 -11 0 -23 5 -26 10 -4 6 -11 7 -17 4 -6 -4 -8 -2 -4 4 3 6 2 13
-4 17 -5 3 -10 1 -10 -6 0 -6 -11 0 -25 15 -14 15 -30 24 -37 20 -7 -4 -8 -3
-4 4 4 7 2 12 -4 12 -6 0 -79 67 -162 150 -84 82 -155 150 -158 150 -4 0 -13
11 -20 25 -7 13 -16 22 -20 20 -4 -2 -13 7 -20 20 -7 14 -20 27 -29 30 -9 3
-25 18 -36 35 -11 16 -25 30 -32 30 -6 0 -15 9 -18 20 -3 11 -12 20 -20 20 -8
0 -17 9 -20 20 -3 11 -13 20 -21 20 -8 0 -14 4 -14 8 0 11 -100 112 -110 112
-5 0 -12 9 -15 20 -3 11 -13 20 -21 20 -8 0 -14 4 -14 8 0 13 -160 167 -171
164 -6 -1 -8 2 -5 7 7 10 -39 61 -54 61 -5 0 -12 9 -15 20 -3 11 -12 20 -20
20 -8 0 -17 9 -20 20 -3 11 -10 20 -15 20 -8 0 -80 68 -80 76 0 11 -53 53 -61
48 -5 -3 -8 -1 -7 5 3 10 -138 161 -145 155 -2 -2 -10 7 -17 21 -7 13 -20 27
-29 30 -9 3 -25 18 -36 35 -11 16 -25 30 -32 30 -6 0 -15 9 -18 20 -3 11 -12
20 -20 20 -8 0 -17 9 -20 20 -3 11 -13 20 -21 20 -8 0 -14 4 -14 9 0 14 -90
96 -102 93 -5 -1 -7 2 -3 7 3 6 -3 16 -15 23 -11 7 -20 18 -20 25 0 6 -9 15
-20 18 -11 3 -20 10 -20 15 0 10 -101 110 -112 110 -4 0 -8 6 -8 14 0 8 -9 18
-20 21 -11 3 -20 12 -20 20 0 8 -9 17 -20 20 -11 3 -20 12 -20 18 0 7 -14 21
-30 32 -17 11 -32 27 -35 36 -3 9 -16 22 -30 29 -13 7 -21 18 -18 23 4 6 0 8
-10 4 -9 -3 -16 -2 -14 2 3 11 -81 101 -94 101 -5 0 -9 7 -9 15 0 8 -6 15 -12
15 -7 1 -3 9 9 19 12 10 21 20 19 22 -1 2 6 12 16 22 10 9 18 15 18 12 0 -3
20 17 45 45 25 28 45 49 45 47 0 -2 54 49 120 114 66 66 127 119 135 119 8 0
14 3 13 8 -2 4 2 9 7 12 6 2 20 14 33 25 13 11 25 19 28 18 2 -2 13 6 24 17
12 12 25 18 30 15 6 -4 10 -1 10 4 0 6 9 11 20 11 11 0 20 4 20 9 0 6 9 8 20
6 11 -2 20 0 20 4 0 4 12 7 28 6 15 -1 33 3 41 9 12 9 13 8 6 -4 -8 -13 -7
-13 8 -1 9 7 17 9 17 4 0 -5 12 -10 28 -10 35 -1 84 -10 117 -23 15 -6 31 -7
37 -4 7 4 8 2 4 -4 -5 -8 0 -12 13 -12 12 0 21 -5 21 -11 0 -5 4 -8 9 -5 5 3
14 -1 21 -9 7 -8 19 -15 26 -15 16 0 116 -51 125 -63 6 -8 21 -17 120 -70 l52
-29 37 41 c21 23 36 41 33 41 -2 0 2 6 9 14 7 8 16 12 21 9 4 -2 7 -1 6 4 -3
19 2 34 10 29 5 -3 11 3 14 14 4 14 -5 30 -30 53 -20 17 -55 51 -78 75 -23 23
-45 42 -49 42 -4 0 -34 26 -67 58 -33 31 -65 56 -70 54 -5 -1 -9 4 -9 10 0 7
-14 21 -30 30 -17 9 -30 24 -30 33 0 9 -5 13 -10 10 -6 -3 -13 1 -16 9 -3 9
-12 16 -20 16 -8 0 -14 7 -14 15 0 8 -4 15 -9 15 -10 0 -49 33 -131 113 -32
31 -62 57 -65 57 -3 0 -25 19 -49 43 -24 23 -61 58 -83 77 -22 20 -43 42 -46
50 -3 10 -6 11 -6 3z"/>
</g>
</svg>
